<?xml version="1.0" encoding="utf-8"?>
<!-- Generator: Adobe Illustrator 26.3.1, SVG Export Plug-In . SVG Version: 6.00 Build 0)  -->
<svg version="1.1" id="Layer_1" xmlns="http://www.w3.org/2000/svg" xmlns:xlink="http://www.w3.org/1999/xlink" x="0px" y="0px"
	 viewBox="0 0 195.2 195.2" style="enable-background:new 0 0 195.2 195.2;" xml:space="preserve">
<path d="M108.2,97.6l68.1-68.1c1.9-1.9,1.9-5.1,0-7.1l-3.5-3.5c-1.9-1.9-5.1-1.9-7.1,0L97.6,87L29.5,18.9c-1.9-1.9-5.1-1.9-7.1,0
	l-3.5,3.5c-1.9,1.9-1.9,5.1,0,7.1L87,97.6l-68.1,68.1c-1.9,1.9-1.9,5.1,0,7.1l3.5,3.5c1.9,1.9,5.1,1.9,7.1,0l68.1-68.1l68.1,68.1
	c1.9,1.9,5.1,1.9,7.1,0l3.5-3.5c1.9-1.9,1.9-5.1,0-7.1L108.2,97.6z"/>
</svg>
